<svg width="55" height="55" viewBox="0 0 55 55" fill="none" xmlns="http://www.w3.org/2000/svg">
<rect width="55" height="55" fill="#F5F5F5"/>
<g clip-path="url(#clip0_0_1)">
<rect width="1728" height="1117" transform="translate(-1112 -105)" fill="#F6B7A8"/>
<rect width="1728" height="1117" transform="translate(-1112 -105)" fill="url(#paint0_linear_0_1)" style="mix-blend-mode:screen"/>
<path d="M-946.5 -9C-946.5 -10.933 -944.933 -12.5 -943 -12.5H447C448.933 -12.5 450.5 -10.933 450.5 -9V68.5H-946.5V-9Z" fill="#EA8573" stroke="black" stroke-width="3"/>
<rect x="53.5" y="53.5" width="52" height="52" rx="8.5" transform="rotate(-180 53.5 53.5)" fill="white" stroke="black" stroke-width="3"/>
<path d="M40.8333 29.4298C40.4134 29.2989 39.9587 29.3394 39.5685 29.5423C39.1782 29.7452 38.884 30.0942 38.75 30.5131C37.9626 32.9206 36.4276 35.014 34.3683 36.4888C32.309 37.9636 29.8328 38.7429 27.3 38.7131C24.1672 38.7488 21.1482 37.5406 18.905 35.3535C16.6617 33.1665 15.3773 30.1791 15.3333 27.0465C15.3773 23.9138 16.6617 20.9265 18.905 18.7394C21.1482 16.5524 24.1672 15.3442 27.3 15.3798C30.1293 15.373 32.8715 16.3578 35.05 18.1631L31.4333 17.5631C31.2166 17.5275 30.9949 17.535 30.7811 17.5853C30.5672 17.6356 30.3655 17.7277 30.1873 17.8563C30.0092 17.9848 29.8583 18.1473 29.7432 18.3344C29.6281 18.5215 29.5511 18.7295 29.5167 18.9465C29.481 19.1632 29.4885 19.3849 29.5388 19.5987C29.5891 19.8126 29.6812 20.0143 29.8098 20.1925C29.9383 20.3706 30.1008 20.5215 30.2879 20.6366C30.475 20.7517 30.683 20.8287 30.9 20.8631L37.9667 22.0298H38.25C38.4433 22.0296 38.635 21.9958 38.8167 21.9298C38.8777 21.9066 38.9342 21.8728 38.9833 21.8298C39.1028 21.7854 39.2151 21.7236 39.3167 21.6465L39.4667 21.4631C39.4667 21.3798 39.6167 21.3132 39.6833 21.2132C39.75 21.1132 39.6833 21.0465 39.7667 20.9798C39.8127 20.8828 39.8517 20.7825 39.8833 20.6798L41.1333 14.0131C41.1749 13.7943 41.173 13.5694 41.1276 13.3512C41.0823 13.1331 40.9945 12.9261 40.8691 12.7419C40.7437 12.5577 40.5833 12.4 40.397 12.2779C40.2107 12.1557 40.0022 12.0714 39.7833 12.0298C39.5645 11.9882 39.3395 11.9902 39.1214 12.0355C38.9033 12.0808 38.6962 12.1687 38.5121 12.2941C38.1401 12.5472 37.884 12.9378 37.8 13.3798L37.35 15.7965C34.56 13.3786 30.992 12.0472 27.3 12.0465C23.2832 12.0109 19.4164 13.5703 16.548 16.3825C13.6796 19.1946 12.044 23.0298 12 27.0465C12.044 31.0632 13.6796 34.8984 16.548 37.7105C19.4164 40.5227 23.2832 42.082 27.3 42.0465C30.5552 42.0965 33.7405 41.1 36.3869 39.2038C39.0332 37.3075 41.0009 34.6117 42 31.5132C42.0632 31.2998 42.0831 31.0759 42.0584 30.8547C42.0337 30.6335 41.9649 30.4195 41.8562 30.2254C41.7474 30.0312 41.6009 29.8607 41.4252 29.7241C41.2496 29.5875 41.0483 29.4874 40.8333 29.4298Z" fill="black"/>
</g>
<defs>
<linearGradient id="paint0_linear_0_1" x1="1728" y1="1100.5" x2="-6.76985e-06" y2="1.063e-05" gradientUnits="userSpaceOnUse">
<stop stop-color="#EA8573"/>
<stop offset="0.0001" stop-color="white"/>
<stop offset="0.9999" stop-color="#EA8573" stop-opacity="0.03125"/>
<stop offset="1" stop-color="#EA8573" stop-opacity="0"/>
</linearGradient>
<clipPath id="clip0_0_1">
<rect width="1728" height="1117" fill="white" transform="translate(-1112 -105)"/>
</clipPath>
</defs>
</svg>
